<svg width="21" height="20" fill="none" xmlns="http://www.w3.org/2000/svg"><path d="M7.002 12.451 7 12.476v.024a1 1 0 1 1-1-1h.207l.147-.146 3-3 .146-.147V8a1 1 0 0 1 2 0v.205l.143.146 1.73 1.76.147.149h.577l.147-.146 3.61-3.61.167-.168-.023-.235a.272.272 0 0 1 0-.052L18 6.024V6a1 1 0 1 1 1 1h-.208l-.147.148-3.64 3.67-.145.146v.286a1 1 0 0 1-2 0v-.287l-.146-.147-1.61-1.61-.147-.146h-.874l-.147.146-2.79 2.79-.167.168.023.235a.27.27 0 0 1 0 .052ZM2 18v.5h17.5a.5.5 0 0 1 0 1h-18A.5.5 0 0 1 1 19V1a.5.5 0 0 1 1 0v17Z" fill="#FFF" stroke="#FFF"/></svg>