<svg width="22" height="22" fill="none" xmlns="http://www.w3.org/2000/svg"><path d="M19.25 11.14h-8.39V2.75a.188.188 0 0 0-.188-.188h-.61a9.339 9.339 0 0 0-6.628 2.745 9.332 9.332 0 0 0-2.008 2.979 9.319 9.319 0 0 0-.738 3.652 9.339 9.339 0 0 0 2.744 6.628 9.332 9.332 0 0 0 2.979 2.008c1.155.49 2.397.74 3.652.738a9.337 9.337 0 0 0 6.628-2.744 9.33 9.33 0 0 0 2.008-2.979c.49-1.155.74-2.397.738-3.652v-.609a.188.188 0 0 0-.187-.187Zm-3.71 6.324a7.773 7.773 0 0 1-5.515 2.255 7.73 7.73 0 0 1-5.466-2.278 7.731 7.731 0 0 1-2.278-5.503c0-2.08.809-4.034 2.278-5.504a7.713 7.713 0 0 1 4.707-2.238v8.538h8.538a7.718 7.718 0 0 1-2.264 4.73Zm5.773-7.627-.061-.66a9.324 9.324 0 0 0-2.7-5.733A9.361 9.361 0 0 0 12.805.748l-.664-.06a.186.186 0 0 0-.204.185v9.002c0 .103.085.188.188.188l9-.024c.11 0 .197-.094.188-.202Zm-7.786-1.364V2.46a7.787 7.787 0 0 1 3.9 2.105 7.738 7.738 0 0 1 2.109 3.893l-6.01.016Z" fill="#FFF"/></svg>