<svg width="24" height="24" fill="none" xmlns="http://www.w3.org/2000/svg"><path d="M2.546 5.375A1.375 1.375 0 0 1 3.921 4h16.5a1.375 1.375 0 0 1 1.375 1.375H2.546Zm9.625 11a2.75 2.75 0 1 0 0-5.5 2.75 2.75 0 0 0 0 5.5Z" fill="#FFF"/><path d="M1.171 8.125A1.375 1.375 0 0 1 2.546 6.75h19.25a1.375 1.375 0 0 1 1.375 1.375v11a1.375 1.375 0 0 1-1.375 1.375H2.546a1.375 1.375 0 0 1-1.375-1.375v-11Zm4.125 0a2.75 2.75 0 0 1-2.75 2.75v5.5a2.75 2.75 0 0 1 2.75 2.75h13.75a2.75 2.75 0 0 1 2.75-2.75v-5.5a2.75 2.75 0 0 1-2.75-2.75H5.296Z" fill="#FFF"/></svg>